<svg width="48" height="48" viewBox="0 0 48 48" fill="none" xmlns="http://www.w3.org/2000/svg">
<path d="M12.1343 13.0661C11.3046 13.0507 10.4596 13.0683 9.62311 13.1184L7.42884 13.2497L7.37857 15.9221L3.64386 15.8532L3.12894 43.2262L21.1747 43.5595L21.8805 42.9015L23.2068 41.665L24.1822 41.683L25.462 42.9676L26.1416 43.6512L44.1874 43.9844L44.7023 16.6113L40.9666 16.5423L41.0169 13.8699L38.83 13.6577C37.9962 13.5767 37.1522 13.528 36.3226 13.5127C32.3458 13.4393 28.4603 14.1169 24.4446 15.5848L24.183 15.6806L23.9261 15.5752C19.9684 13.9601 16.111 13.1395 12.1343 13.0661ZM42.2795 18.9234L41.8532 41.5844L40.497 41.5594L40.9233 18.8984L42.2795 18.9234ZM20.2994 38.7876C20.9801 38.8002 21.7049 38.8405 22.4528 38.9075L22.4918 38.9111L23.7448 39.0231L25.0002 38.9574L25.0393 38.9552C25.7893 38.916 26.5151 38.9024 27.1957 38.9149C30.6237 38.9783 33.9403 39.6229 37.3352 40.8866L39.0714 41.5331L27.1555 41.313L25.1961 39.3449L22.2825 39.2911L20.2504 41.1855L8.33449 40.9655L10.0928 40.3836C13.5328 39.2462 16.8715 38.7243 20.2994 38.7876ZM7.33425 18.2781L6.90797 40.9392L5.55176 40.9141L5.97804 18.2531L7.33425 18.2781ZM36.2782 15.8687C37.0412 15.8828 37.8182 15.9277 38.5984 16.0034L38.1718 38.681C34.5233 37.3228 30.9262 36.627 27.24 36.5589C26.4748 36.5448 25.6955 36.5609 24.9136 36.6019L25.2674 17.7957C28.9948 16.433 32.6072 15.801 36.2782 15.8687ZM12.09 15.4221C15.761 15.4899 19.3469 16.255 23.0207 17.7542L22.6669 36.5604C21.8872 36.4906 21.1091 36.4447 20.3438 36.4306C16.6576 36.3626 13.0368 36.9261 9.33979 38.1486L9.7664 15.47C10.5489 15.4232 11.3272 15.408 12.09 15.4221Z" fill="#0D6F66"/>
<path d="M12.1343 13.0661C11.3046 13.0507 10.4596 13.0683 9.62311 13.1184L7.42884 13.2497L7.37857 15.9221L3.64386 15.8532L3.12894 43.2262L21.1747 43.5595L21.8805 42.9015L23.2068 41.665L24.1822 41.683L25.462 42.9676L26.1416 43.6512L44.1874 43.9844L44.7023 16.6113L40.9666 16.5423L41.0169 13.8699L38.83 13.6577C37.9962 13.5767 37.1522 13.528 36.3226 13.5127C32.3458 13.4393 28.4603 14.1169 24.4446 15.5848L24.183 15.6806L23.9261 15.5752C19.9684 13.9601 16.111 13.1395 12.1343 13.0661ZM42.2795 18.9234L41.8532 41.5844L40.497 41.5594L40.9233 18.8984L42.2795 18.9234ZM20.2994 38.7876C20.9801 38.8002 21.7049 38.8405 22.4528 38.9075L22.4918 38.9111L23.7448 39.0231L25.0002 38.9574L25.0393 38.9552C25.7893 38.916 26.5151 38.9024 27.1957 38.9149C30.6237 38.9783 33.9403 39.6229 37.3352 40.8866L39.0714 41.5331L27.1555 41.313L25.1961 39.3449L22.2825 39.2911L20.2504 41.1855L8.33449 40.9655L10.0928 40.3836C13.5328 39.2462 16.8715 38.7243 20.2994 38.7876ZM7.33425 18.2781L6.90797 40.9392L5.55176 40.9141L5.97804 18.2531L7.33425 18.2781ZM36.2782 15.8687C37.0412 15.8828 37.8182 15.9277 38.5984 16.0034L38.1718 38.681C34.5233 37.3228 30.9262 36.627 27.24 36.5589C26.4748 36.5448 25.6955 36.5609 24.9136 36.6019L25.2674 17.7957C28.9948 16.433 32.6072 15.801 36.2782 15.8687ZM12.09 15.4221C15.761 15.4899 19.3469 16.255 23.0207 17.7542L22.6669 36.5604C21.8872 36.4906 21.1091 36.4447 20.3438 36.4306C16.6576 36.3626 13.0368 36.9261 9.33979 38.1486L9.7664 15.47C10.5489 15.4232 11.3272 15.408 12.09 15.4221Z" stroke="black"/>
</svg>
