<svg width="29" height="28" viewBox="0 0 29 28" fill="none" xmlns="http://www.w3.org/2000/svg">
    <path fill-rule="evenodd" clip-rule="evenodd"
        d="M25.9023 24.8968C25.8866 24.208 25.7109 23.3947 25.4712 22.6441C25.1496 21.6407 24.7243 20.7745 24.4264 20.5002C24.3544 20.4345 19.9038 18.6012 18.5293 18.0368L18.2688 17.929C17.1816 18.7159 15.8388 19.1098 14.4989 19.1098C14.2039 19.1098 13.9109 19.0911 13.6188 19.0539V23.8884H13.0574V18.9558C12.2198 18.7736 11.4226 18.4326 10.728 17.9289L10.4676 18.0367C9.09617 18.6021 4.64549 20.4344 4.57047 20.5001C4.26956 20.7744 3.84728 21.6406 3.52565 22.644C3.2859 23.3916 3.11128 24.2049 3.09451 24.8967L25.9023 24.8968ZM17.9364 17.4821C16.9478 18.1955 15.7244 18.5512 14.4991 18.5512C13.2738 18.5512 12.0504 18.1945 11.0619 17.4821L11.054 16.7296C12.0672 17.3714 13.2847 17.6908 14.4993 17.6908C15.714 17.6908 16.9323 17.3714 17.9447 16.7296L17.9364 17.4821ZM18.6201 22.9322H22.0604V23.4897H18.6201V22.9322ZM18.4317 5.06467C18.0144 4.44441 17.453 3.97115 16.8156 3.64387C16.1082 3.28231 15.3051 3.10004 14.5 3.10004C13.694 3.10004 12.8918 3.2823 12.1844 3.64387C11.5461 3.96821 10.9857 4.44441 10.5684 5.06467H18.4327H18.4317ZM9.91312 5.06467C10.3966 4.20925 11.1069 3.5704 11.9288 3.15004C12.7181 2.74633 13.612 2.54546 14.5 2.54546C15.388 2.54546 16.2808 2.74828 17.0712 3.15004C17.893 3.56942 18.6024 4.20927 19.0869 5.06467H19.6877C19.9482 5.06467 20.182 5.1705 20.3547 5.33904C20.5244 5.50758 20.6309 5.74275 20.6309 5.99946C20.6309 6.25519 20.5244 6.49036 20.3547 6.66184C20.185 6.83037 19.9482 6.93621 19.6877 6.93621H19.5762L22.8971 19.2491C23.9291 19.6851 24.745 20.0388 24.8062 20.0937C25.1673 20.4269 25.6566 21.3901 26.0049 22.4777C26.295 23.3782 26.4943 24.3786 26.4598 25.187L26.4489 25.4536L2.5511 25.4545L2.54025 25.188C2.50572 24.3796 2.70501 23.3792 2.99508 22.4787C3.34336 21.391 3.83272 20.4269 4.19383 20.0947C4.255 20.0388 5.06894 19.6851 6.10293 19.2501L9.42378 6.93719H9.31229C9.05183 6.93719 8.818 6.83136 8.64731 6.66282C8.47761 6.49428 8.37104 6.25911 8.37104 6.00044C8.37104 5.74177 8.4776 5.50954 8.64731 5.34002C8.81701 5.17149 9.0538 5.06565 9.31229 5.06565H9.91313L9.91312 5.06467ZM22.2438 18.9747C20.9227 18.4201 19.4417 17.8125 18.7451 17.5255L18.4955 17.4226L18.5064 16.4457C18.5064 16.3692 18.4876 16.2977 18.4501 16.234C18.4126 16.1703 18.3574 16.1204 18.2903 16.0831C18.2212 16.0459 18.1463 16.0331 18.0752 16.038C18.0012 16.0429 17.9292 16.0674 17.868 16.1115H17.8631V14.0049C18.3811 12.5027 18.4107 10.6441 18.4343 9.17513C18.4373 8.96936 18.4393 8.77142 18.4452 8.5784V8.50981L18.4136 8.44612C18.3633 8.34813 18.2725 8.26877 18.1482 8.20606C17.6243 7.93954 16.0556 7.80431 14.5008 7.80431C12.946 7.80431 11.3772 7.93855 10.8534 8.20606C10.7281 8.26975 10.6383 8.34911 10.588 8.44612L10.5564 8.50981V8.5784C10.5613 8.77339 10.5643 8.96936 10.5692 9.17513C10.5909 10.643 10.6195 12.5018 11.1405 14.0049V16.1145H11.1355C11.0714 16.0665 11.0023 16.041 10.9284 16.0351C10.8563 16.0302 10.7823 16.0459 10.7133 16.0802C10.6442 16.1145 10.5909 16.1674 10.5534 16.2311C10.5159 16.2948 10.4952 16.3653 10.4972 16.4427L10.5081 17.4197L10.2584 17.5225C9.56189 17.8106 8.08393 18.4181 6.75978 18.9717L10.0059 6.93429H18.9998L22.2459 18.9717L22.2438 18.9747ZM19.6885 6.3826C19.7921 6.3826 19.8878 6.34046 19.9569 6.27187C20.0259 6.20328 20.0683 6.10824 20.0683 6.00535C20.0683 5.90247 20.0259 5.80742 19.9569 5.73883C19.8878 5.67024 19.7921 5.62811 19.6885 5.62811L9.30922 5.62713C9.20562 5.62713 9.10992 5.66926 9.04086 5.73785C8.9718 5.80644 8.92937 5.90149 8.92937 6.00437C8.92937 6.10726 8.9718 6.2023 9.04086 6.27089C9.10992 6.33948 9.20562 6.38162 9.30922 6.38162H19.6885V6.3826ZM14.4989 16.1203C17.7694 15.9459 17.8326 11.853 17.873 9.16821C17.873 9.00457 17.8779 8.84387 17.8809 8.69298C17.4261 8.47154 15.9688 8.35984 14.4987 8.35984C13.0285 8.35984 11.5713 8.47056 11.1164 8.69298C11.1194 8.84388 11.1214 9.00165 11.1243 9.16821C11.1668 11.854 11.2279 15.946 14.4985 16.1203H14.4989ZM17.2989 15.162C16.7247 16.0223 15.8476 16.6093 14.5127 16.6779H14.4999H14.4871C13.1502 16.6122 12.2751 16.0233 11.701 15.162V16.4613C12.5465 16.9101 13.5252 17.1345 14.501 17.1345C15.4768 17.1345 16.4555 16.9101 17.301 16.4613V15.162H17.2989Z"
        fill="#2F9E92" stroke="#2F9E92" stroke-width="0.65" />
</svg>
