<svg width="54" height="163" viewBox="0 0 54 163" fill="none" xmlns="http://www.w3.org/2000/svg">
<path d="M24.8661 5.39524C25.6819 3.4825 28.3932 3.48249 29.2089 5.39523L43.2223 38.2522C44.0583 40.2124 42.0744 42.1894 40.1172 41.3465L27.9712 36.1157C27.3752 35.8591 26.6998 35.8591 26.1038 36.1157L13.958 41.3465C12.0008 42.1893 10.0168 40.2124 10.8528 38.2522L24.8661 5.39524Z" fill="#2EB60C"/>
<g clip-path="url(#clip0_141_332)">
<path d="M53.5237 81.1668L46.1665 54.6808H3.49454L0.551655 81.1668L3.49454 107.653H46.1665L53.5237 81.1668Z" fill="black"/>
<path d="M0.551655 81.1666L3.49454 107.653H46.1665L53.5237 81.1666H0.551655Z" fill="#292F33"/>
<path d="M32.1774 87.7204H27.1642L26.2637 93.9432H31.1283L32.1774 87.7204ZM30.4396 98.0206H25.6736L24.9703 102.875H29.6215L30.4396 98.0206ZM33.2825 81.1666H28.1133L27.7542 83.6431H32.8646L33.2825 81.1666ZM28.8152 107.653L28.9491 106.86H24.3935L24.2787 107.653H28.8152Z" fill="#FFD983"/>
<path d="M28.8152 54.6807H24.2787L24.3935 55.4738H28.9491L28.8152 54.6807ZM32.8646 78.6902H27.7542L28.1133 81.1667H33.2825L32.8646 78.6902ZM29.6215 59.4584H24.9703L25.6736 64.3127H30.4396L29.6215 59.4584ZM31.1283 68.3901H26.2637L27.1642 74.6129H32.1774L31.1283 68.3901Z" fill="#FFAC33"/>
<path d="M31.2591 86.1534H31.3209C31.9404 86.1534 32.4436 85.943 32.4436 85.6826C32.4436 85.4221 31.9404 85.2117 31.3209 85.2117H31.2591C30.9398 84.9056 30.3453 84.6893 29.6361 84.6893C28.8812 84.6893 28.2397 84.9277 27.941 85.2676C27.6541 85.3618 27.4554 85.5075 27.4554 85.6826C27.4554 85.8577 27.6541 86.0033 27.941 86.0975C28.2397 86.4374 28.8812 86.6758 29.6361 86.6758C30.3453 86.6743 30.9398 86.4595 31.2591 86.1534ZM29.6861 96.4521H29.7479C30.3674 96.4521 30.8706 96.2416 30.8706 95.9812C30.8706 95.7208 30.3674 95.5103 29.7479 95.5103H29.6861C29.3668 95.2043 28.7723 94.988 28.0631 94.988C27.3083 94.988 26.6667 95.2264 26.368 95.5663C26.0811 95.6604 25.8824 95.8061 25.8824 95.9812C25.8824 96.1563 26.0811 96.302 26.368 96.3962C26.6667 96.7361 27.3083 96.9744 28.0631 96.9744C28.7709 96.9744 29.3653 96.7581 29.6861 96.4521ZM28.1705 105.306H28.2279C28.8062 105.306 29.2756 105.109 29.2756 104.866C29.2756 104.623 28.8062 104.426 28.2279 104.426H28.1705C27.8718 104.14 27.3171 103.939 26.6549 103.939C25.9501 103.939 25.3512 104.161 25.0717 104.479C24.8039 104.566 24.6185 104.702 24.6185 104.866C24.6185 105.029 24.8039 105.164 25.0717 105.253C25.3498 105.569 25.9501 105.793 26.6549 105.793C27.3171 105.793 27.8718 105.593 28.1705 105.306Z" fill="#FFD983"/>
<path d="M31.2592 76.1799H31.321C31.9405 76.1799 32.4437 76.3904 32.4437 76.6508C32.4437 76.9113 31.9405 77.1217 31.321 77.1217H31.2592C30.9399 77.4277 30.3454 77.644 29.6362 77.644C28.8814 77.644 28.2398 77.4057 27.9411 77.0658C27.6542 76.9716 27.4555 76.8259 27.4555 76.6508C27.4555 76.4757 27.6542 76.33 27.9411 76.2359C28.2398 75.896 28.8814 75.6576 29.6362 75.6576C30.3454 75.6591 30.9399 75.8739 31.2592 76.1799ZM29.6862 65.8813H29.748C30.3675 65.8813 30.8708 66.0917 30.8708 66.3522C30.8708 66.6126 30.3675 66.823 29.748 66.823H29.6862C29.3669 67.1291 28.7725 67.3454 28.0632 67.3454C27.3084 67.3454 26.6668 67.107 26.3681 66.7671C26.0812 66.6729 25.8826 66.5273 25.8826 66.3522C25.8826 66.1771 26.0812 66.0314 26.3681 65.9372C26.6668 65.5973 27.3084 65.3589 28.0632 65.3589C28.771 65.3589 29.3655 65.5752 29.6862 65.8813ZM28.1707 57.0276H28.228C28.8063 57.0276 29.2757 57.2248 29.2757 57.4676C29.2757 57.7104 28.8063 57.9075 28.228 57.9075H28.1707C27.872 58.193 27.3172 58.3946 26.6551 58.3946C25.9502 58.3946 25.3514 58.1724 25.0718 57.8546C24.804 57.7678 24.6186 57.6309 24.6186 57.4676C24.6186 57.3043 24.8055 57.1674 25.0718 57.0791C25.3499 56.7628 25.9502 56.5391 26.6551 56.5391C27.3172 56.5406 27.872 56.7407 28.1707 57.0276ZM37.1229 54.6807H31.9729L36.7815 81.1667H42.3201L37.1229 54.6807Z" fill="#FFAC33"/>
<path d="M42.3201 81.1666H36.7815L31.9729 107.653H37.1229L42.3201 81.1666Z" fill="#FFD983"/>
</g>
<defs>
<clipPath id="clip0_141_332">
<rect width="52.972" height="52.972" fill="white" transform="matrix(0 1 -1 0 53.5237 54.6808)"/>
</clipPath>
</defs>
</svg>
